<svg width="96" height="27" viewBox="0 0 96 27" fill="none" xmlns="http://www.w3.org/2000/svg">
<path d="M0.0520001 26V0.799998H7.036L17.116 17.252H13.444L23.236 0.799998H30.22L30.292 26H22.552L22.48 12.464H23.704L17.008 23.732H13.264L6.28 12.464H7.792V26H0.0520001ZM34.3997 26V0.799998H42.8957V26H34.3997ZM46.9856 26V0.799998H60.4496C63.9296 0.799998 66.4976 1.424 68.1536 2.672C69.8096 3.896 70.6376 5.468 70.6376 7.388C70.6376 8.66 70.2776 9.8 69.5576 10.808C68.8616 11.792 67.8416 12.572 66.4976 13.148C65.1536 13.724 63.4976 14.012 61.5296 14.012L62.2496 12.068C64.2176 12.068 65.9096 12.344 67.3256 12.896C68.7656 13.448 69.8696 14.252 70.6376 15.308C71.4296 16.34 71.8256 17.588 71.8256 19.052C71.8256 21.236 70.9136 22.94 69.0896 24.164C67.2896 25.388 64.6496 26 61.1696 26H46.9856ZM55.3376 20.06H60.4496C61.3856 20.06 62.0816 19.892 62.5376 19.556C63.0176 19.22 63.2576 18.728 63.2576 18.08C63.2576 17.432 63.0176 16.94 62.5376 16.604C62.0816 16.268 61.3856 16.1 60.4496 16.1H54.7616V10.484H59.2976C60.2576 10.484 60.9536 10.328 61.3856 10.016C61.8416 9.68 62.0696 9.212 62.0696 8.612C62.0696 7.988 61.8416 7.52 61.3856 7.208C60.9536 6.896 60.2576 6.74 59.2976 6.74H55.3376V20.06ZM84.2253 26.576C82.1133 26.576 80.0733 26.336 78.1053 25.856C76.1373 25.376 74.5173 24.752 73.2453 23.984L75.9813 17.792C77.1813 18.488 78.5133 19.052 79.9773 19.484C81.4653 19.892 82.9053 20.096 84.2973 20.096C85.1133 20.096 85.7493 20.048 86.2053 19.952C86.6853 19.832 87.0333 19.676 87.2493 19.484C87.4653 19.268 87.5733 19.016 87.5733 18.728C87.5733 18.272 87.3213 17.912 86.8173 17.648C86.3133 17.384 85.6413 17.168 84.8013 17C83.9853 16.808 83.0853 16.616 82.1013 16.424C81.1173 16.208 80.1213 15.932 79.1133 15.596C78.1293 15.26 77.2173 14.816 76.3773 14.264C75.5613 13.712 74.9013 12.992 74.3973 12.104C73.8933 11.192 73.6413 10.064 73.6413 8.72C73.6413 7.16 74.0733 5.744 74.9373 4.472C75.8253 3.176 77.1333 2.144 78.8613 1.376C80.6133 0.607999 82.7853 0.223999 85.3773 0.223999C87.0813 0.223999 88.7613 0.403999 90.4173 0.763999C92.0733 1.124 93.5613 1.676 94.8813 2.42L92.3253 8.576C91.0773 7.952 89.8653 7.484 88.6893 7.172C87.5373 6.86 86.4093 6.704 85.3053 6.704C84.4893 6.704 83.8413 6.776 83.3613 6.92C82.8813 7.064 82.5333 7.256 82.3173 7.496C82.1253 7.736 82.0293 8 82.0293 8.288C82.0293 8.72 82.2813 9.068 82.7853 9.332C83.2893 9.572 83.9493 9.776 84.7653 9.944C85.6053 10.112 86.5173 10.292 87.5013 10.484C88.5093 10.676 89.5053 10.94 90.4893 11.276C91.4733 11.612 92.3733 12.056 93.1893 12.608C94.0293 13.16 94.7013 13.88 95.2053 14.768C95.7093 15.656 95.9613 16.76 95.9613 18.08C95.9613 19.616 95.5173 21.032 94.6293 22.328C93.7653 23.6 92.4693 24.632 90.7413 25.424C89.0133 26.192 86.8413 26.576 84.2253 26.576Z" fill="white"/>
</svg>
